{"title":"The.Boy.2015.WEBRiP.XViD.AC3.5.1.ReLeNTLesS","uid":12261447,"size":1441146997,"categoryP":"video","categoryS":"movies","magnet":"?xt=urn:btih:1de7c77e54aba844ffacd9c74e1c8e1bb13b2193&amp;dn=The.Boy.2015.WEBRiP.XViD.AC3.5.1.ReLeNTLesS&amp;tr=udp%3A%2F%2Ftracker.openbittorrent.com%3A80&amp;tr=udp%3A%2F%2Fopen.demonii.com%3A1337&amp;tr=udp%3A%2F%2Ftracker.coppersurfer.tk%3A6969&amp;tr=udp%3A%2F%2Fexodus.desync.com%3A6969","seeders":1,"leechers":0,"uploader":"TvTeam","files":4,"time":1440176750,"description":"------------------------------------------------------------------------\n\n &lt;a href=&quot; https://www.torrenting.com&quot; rel=&quot;nofollow&quot; target=&quot;_NEW&quot;&gt; https://www.torrenting.com&lt;/a&gt;\n\nSign up is OPEN - for time being. Come and have fun\n\n.......................................................................................................................P0STER\n[img]http://i.imgur.com/Ap9cZyX.png[/img]\n\niMDB: http://www.imdb.com/title/tt2443822/\n\nGeneral\nComplete name               : The.Boy.2015.WEBRiP.XViD.AC3.5.1.ReLeNTLesS.avi\nFormat                      : AVI\nFormat/Info                 : Audio Video Interleave\nFile size                   : 1.32 GiB\nDuration                    : 1h 50mn\nOverall bit rate            : 1 708 Kbps\n\nVideo\nID                          : 0\nFormat                      : MPEG-4 Visual\nFormat profile              : Advanced Simple@L5\nFormat settings, BVOP       : 1\nFormat settings, QPel       : No\nFormat settings, GMC        : No warppoints\nFormat settings, Matrix     : Default (H.263)\nMuxing mode                 : Packed bitstream\nCodec ID                    : XVID\nCodec ID/Hint               : XviD\nDuration                    : 1h 50mn\nBit rate                    : 1 508 Kbps\nWidth                       : 720 pixels\nHeight                      : 304 pixels\nDisplay aspect ratio        : 2.35:1\nFrame rate                  : 23.976 fps\nColor space                 : YUV\nChroma subsampling          : 4:2:0\nBit depth                   : 8 bits\nScan type                   : Progressive\nCompression mode            : Lossy\nBits/(Pixel*Frame)          : 0.287\nStream size                 : 1.16 GiB (88%)\nWriting library             : XviD 1.2.1 (UTC 2008-12-04)\n\nAudio\nID                          : 1\nFormat                      : AC-3\nFormat/Info                 : Audio Coding 3\nMode extension              : CM (complete main)\nFormat settings, Endianness : Big\nCodec ID                    : 2000\nDuration                    : 1h 50mn\nBit rate mode               : Constant\nBit rate                    : 192 Kbps\nChannel(s)                  : 6 channels\nChannel positions           : Front: L C R, Side: L R, LFE\nSampling rate               : 48.0 KHz\nCompression mode            : Lossy\nStream size                 : 152 MiB (11%)\nAlignment                   : Aligned on interleaves\nInterleave, duration        : 64 ms (1.53 video frames)\nInterleave, preload duratio : 192 ms\nTitle                       : The.Boy.2015.ReLeNTLesS.audio.AC3.5.1.English_new\nSample Included             : Yes\nSource                      : PLAYNOW Thanks\n\nPL0T\nAn intimate portrait of a 9-year-old sociopath's growing fascination with death.\n\nCAST\nDirector: Craig William Macneill\nWriters: Craig William Macneill, Clay McLeod Chapman (novel)\nStars: David Morse, Rainn Wilson, Jared Breeze\n\nSCREENS\n[img]http://i.imgur.com/TWpO3K6.png[/img]\n[img]http://i.imgur.com/tWqhpCJ.png[/img]\n[img]http://i.imgur.com/iFF7fGL.png[/img]\n[img]http://i.imgur.com/huZuV5G.png[/img]\n[img]http://i.imgur.com/WmRnWM3.png[/img]\n[img]http://i.imgur.com/p86n7sk.png[/img]\n\nTRAiLER\n\nGREETZ\n\n\nHIVE-CM8, Blackjesus, M0RPH, M00SE, MiLLENiUM,\n\nMANiX, TiTAN, Anonymous, TuX, \n\nACAB, KingStoner, FooKas, 4PlayHD, \n\nGodFather, Cld.... \n\nKeep up the good work guyz","torrent":{"xt":"urn:btih:1de7c77e54aba844ffacd9c74e1c8e1bb13b2193","amp;dn":"The.Boy.2015.WEBRiP.XViD.AC3.5.1.ReLeNTLesS","amp;tr":["udp%3A%2F%2Ftracker.openbittorrent.com%3A80","udp%3A%2F%2Fopen.demonii.com%3A1337","udp%3A%2F%2Ftracker.coppersurfer.tk%3A6969","udp%3A%2F%2Fexodus.desync.com%3A6969"],"infoHash":"1de7c77e54aba844ffacd9c74e1c8e1bb13b2193","infoHashBuffer":{"type":"Buffer","data":[29,231,199,126,84,171,168,68,255,172,217,199,78,28,142,27,177,59,33,147]},"announce":[],"urlList":[]}}